<svg width="89" height="92" viewBox="0 0 89 92" fill="none" xmlns="http://www.w3.org/2000/svg">
<path d="M26 25H22.5V33.5L27 37V43L32.5 52.5L31.5 62C31.5 62 23.0233 65.3811 17.5 68C13.2363 70.0216 9.96784 70.7999 6.49999 74C3.47285 76.7934 1.99526 79.003 0.999995 83C0.197936 86.2211 0.999995 91.5 0.999995 91.5H56C53.2663 86.0327 49 83.5 48.5 77.5C48 71.5 47.8772 71.7605 48.5 68.5C49.4172 63.6984 54.5 58 54.5 58V52L59.5 44V37L64 33.5V25H61C61 25 62.1127 17.8685 61 13.5C59.66 8.23912 57.1436 7.31237 52.5 4.50001C45.8193 0.453856 41.1807 0.453856 34.5 4.50001C29.8564 7.31237 27.34 8.23912 26 13.5C24.8873 17.8685 26 25 26 25Z" fill="#4ED1EC" stroke="#71E7FF"/>
<circle cx="72" cy="73" r="17" fill="#4ED1EC"/>
<path d="M76.5 60.5H69V69.5H64H60V77H69V86H76V77H84.5V69.5H76.5V60.5Z" fill="#002334" stroke="black"/>
</svg>
