<svg width="425" height="105" viewBox="0 0 425 105" fill="none" xmlns="http://www.w3.org/2000/svg">
<path opacity="0.1" d="M17 41.5L277.5 23" stroke="#FEFEFE"/>
<path d="M15.5 49.5H11L22 79L28 80V85.5L399 94V90H405L415.5 18.5H408.5V12.5L275 23.5V20.5L408.5 9V3.5H424.5V18.5H418.5L408.5 90H413V104H399V98L28 90V94H13V80L18 79L6.5 49.5H1V35H15.5V49.5Z" fill="#D9D9D9" stroke="black"/>
<path d="M20.718 42V10.7273H33.0561C35.428 10.7273 37.4487 11.1803 39.1183 12.0863C40.7878 12.9821 42.0603 14.2292 42.9357 15.8274C43.8214 17.4155 44.2642 19.2479 44.2642 21.3246C44.2642 23.4013 43.8163 25.2337 42.9205 26.8217C42.0246 28.4098 40.7267 29.6467 39.0266 30.5323C37.3368 31.418 35.2906 31.8608 32.8881 31.8608H25.0241V26.5621H31.8192C33.0917 26.5621 34.1403 26.3433 34.9648 25.9055C35.7996 25.4576 36.4206 24.8417 36.8278 24.0579C37.2451 23.2638 37.4538 22.3527 37.4538 21.3246C37.4538 20.2862 37.2451 19.3802 36.8278 18.6065C36.4206 17.8227 35.7996 17.217 34.9648 16.7894C34.1301 16.3517 33.0714 16.1328 31.7887 16.1328H27.3299V42H20.718ZM48.9889 42V10.7273H61.3269C63.6887 10.7273 65.7043 11.1497 67.3738 11.9947C69.0535 12.8294 70.3311 14.0154 71.2065 15.5526C72.0922 17.0795 72.535 18.8763 72.535 20.9428C72.535 23.0195 72.0871 24.8061 71.1913 26.3026C70.2954 27.7888 68.9975 28.929 67.2975 29.723C65.6076 30.517 63.5614 30.9141 61.159 30.9141H52.898V25.6001H60.0901C61.3524 25.6001 62.4009 25.4271 63.2357 25.081C64.0704 24.7348 64.6914 24.2157 65.0986 23.5234C65.516 22.8312 65.7247 21.971 65.7247 20.9428C65.7247 19.9045 65.516 19.029 65.0986 18.3164C64.6914 17.6038 64.0653 17.0643 63.2204 16.6978C62.3856 16.3211 61.332 16.1328 60.0595 16.1328H55.6007V42H48.9889ZM65.8774 27.7685L73.6497 42H66.3507L58.7463 27.7685H65.8774ZM106.376 26.3636C106.376 29.7739 105.729 32.6752 104.436 35.0675C103.154 37.4598 101.403 39.2871 99.1834 40.5494C96.9744 41.8015 94.4905 42.4276 91.7317 42.4276C88.9526 42.4276 86.4585 41.7964 84.2495 40.5341C82.0404 39.2718 80.2946 37.4445 79.0119 35.0522C77.7292 32.6599 77.0879 29.7637 77.0879 26.3636C77.0879 22.9534 77.7292 20.0521 79.0119 17.6598C80.2946 15.2675 82.0404 13.4453 84.2495 12.1932C86.4585 10.9309 88.9526 10.2997 91.7317 10.2997C94.4905 10.2997 96.9744 10.9309 99.1834 12.1932C101.403 13.4453 103.154 15.2675 104.436 17.6598C105.729 20.0521 106.376 22.9534 106.376 26.3636ZM99.6721 26.3636C99.6721 24.1546 99.3412 22.2917 98.6795 20.7749C98.028 19.258 97.1067 18.1077 95.9157 17.3239C94.7246 16.54 93.33 16.1481 91.7317 16.1481C90.1335 16.1481 88.7388 16.54 87.5478 17.3239C86.3567 18.1077 85.4303 19.258 84.7686 20.7749C84.1171 22.2917 83.7914 24.1546 83.7914 26.3636C83.7914 28.5727 84.1171 30.4356 84.7686 31.9524C85.4303 33.4692 86.3567 34.6196 87.5478 35.4034C88.7388 36.1873 90.1335 36.5792 91.7317 36.5792C93.33 36.5792 94.7246 36.1873 95.9157 35.4034C97.1067 34.6196 98.028 33.4692 98.6795 31.9524C99.3412 30.4356 99.6721 28.5727 99.6721 26.3636ZM111.703 42V10.7273H132.409V16.1786H118.315V23.6303H131.035V29.0817H118.315V42H111.703ZM143.899 10.7273V42H137.287V10.7273H143.899ZM166.733 19.7212C166.611 18.4895 166.087 17.5326 165.16 16.8505C164.234 16.1684 162.977 15.8274 161.389 15.8274C160.31 15.8274 159.399 15.9801 158.655 16.2855C157.912 16.5807 157.342 16.993 156.945 17.5224C156.558 18.0517 156.365 18.6523 156.365 19.3242C156.345 19.8841 156.462 20.3728 156.716 20.7901C156.981 21.2075 157.342 21.5689 157.8 21.8743C158.258 22.1695 158.788 22.4291 159.388 22.6531C159.989 22.8668 160.63 23.0501 161.312 23.2028L164.122 23.8746C165.486 24.18 166.738 24.5872 167.879 25.0962C169.019 25.6052 170.006 26.2313 170.841 26.9744C171.676 27.7176 172.322 28.593 172.78 29.6009C173.248 30.6087 173.488 31.7641 173.498 33.0671C173.488 34.9809 172.999 36.6403 172.032 38.0451C171.075 39.4397 169.691 40.5239 167.879 41.2976C166.077 42.0611 163.903 42.4428 161.358 42.4428C158.834 42.4428 156.635 42.056 154.762 41.2823C152.899 40.5086 151.443 39.3634 150.394 37.8466C149.356 36.3196 148.812 34.4312 148.761 32.1815H155.159C155.23 33.23 155.53 34.1055 156.06 34.8079C156.599 35.5001 157.317 36.0244 158.213 36.3807C159.119 36.7268 160.142 36.8999 161.282 36.8999C162.402 36.8999 163.374 36.737 164.198 36.4112C165.033 36.0855 165.68 35.6325 166.138 35.0522C166.596 34.4719 166.825 33.8052 166.825 33.0518C166.825 32.3494 166.616 31.759 166.199 31.2805C165.792 30.8021 165.191 30.3949 164.397 30.0589C163.613 29.723 162.651 29.4176 161.511 29.1428L158.106 28.2876C155.469 27.6463 153.387 26.6436 151.86 25.2795C150.333 23.9154 149.575 22.0779 149.585 19.767C149.575 17.8736 150.079 16.2193 151.097 14.8043C152.125 13.3893 153.535 12.2848 155.327 11.4908C157.118 10.6967 159.154 10.2997 161.435 10.2997C163.756 10.2997 165.781 10.6967 167.512 11.4908C169.253 12.2848 170.607 13.3893 171.574 14.8043C172.541 16.2193 173.04 17.8583 173.07 19.7212H166.733ZM195.34 19.7212C195.218 18.4895 194.694 17.5326 193.767 16.8505C192.841 16.1684 191.584 15.8274 189.996 15.8274C188.917 15.8274 188.005 15.9801 187.262 16.2855C186.519 16.5807 185.949 16.993 185.552 17.5224C185.165 18.0517 184.972 18.6523 184.972 19.3242C184.951 19.8841 185.068 20.3728 185.323 20.7901C185.588 21.2075 185.949 21.5689 186.407 21.8743C186.865 22.1695 187.395 22.4291 187.995 22.6531C188.596 22.8668 189.237 23.0501 189.919 23.2028L192.729 23.8746C194.093 24.18 195.345 24.5872 196.485 25.0962C197.625 25.6052 198.613 26.2313 199.448 26.9744C200.282 27.7176 200.929 28.593 201.387 29.6009C201.855 30.6087 202.094 31.7641 202.105 33.0671C202.094 34.9809 201.606 36.6403 200.639 38.0451C199.682 39.4397 198.297 40.5239 196.485 41.2976C194.683 42.0611 192.51 42.4428 189.965 42.4428C187.44 42.4428 185.242 42.056 183.368 41.2823C181.506 40.5086 180.05 39.3634 179.001 37.8466C177.963 36.3196 177.418 34.4312 177.367 32.1815H183.765C183.837 33.23 184.137 34.1055 184.666 34.8079C185.206 35.5001 185.924 36.0244 186.819 36.3807C187.725 36.7268 188.749 36.8999 189.889 36.8999C191.008 36.8999 191.981 36.737 192.805 36.4112C193.64 36.0855 194.286 35.6325 194.745 35.0522C195.203 34.4719 195.432 33.8052 195.432 33.0518C195.432 32.3494 195.223 31.759 194.806 31.2805C194.398 30.8021 193.798 30.3949 193.004 30.0589C192.22 29.723 191.258 29.4176 190.118 29.1428L186.713 28.2876C184.076 27.6463 181.994 26.6436 180.467 25.2795C178.94 23.9154 178.182 22.0779 178.192 19.767C178.182 17.8736 178.686 16.2193 179.704 14.8043C180.732 13.3893 182.142 12.2848 183.933 11.4908C185.725 10.6967 187.761 10.2997 190.041 10.2997C192.362 10.2997 194.388 10.6967 196.119 11.4908C197.86 12.2848 199.213 13.3893 200.181 14.8043C201.148 16.2193 201.646 17.8583 201.677 19.7212H195.34ZM211.658 42H204.573L215.369 10.7273H223.89L234.67 42H227.585L219.751 17.8736H219.507L211.658 42ZM211.216 29.7077H227.951V34.869H211.216V29.7077ZM266.132 26.3636C266.132 29.7739 265.486 32.6752 264.193 35.0675C262.91 37.4598 261.159 39.2871 258.94 40.5494C256.731 41.8015 254.247 42.4276 251.488 42.4276C248.709 42.4276 246.215 41.7964 244.006 40.5341C241.797 39.2718 240.051 37.4445 238.769 35.0522C237.486 32.6599 236.845 29.7637 236.845 26.3636C236.845 22.9534 237.486 20.0521 238.769 17.6598C240.051 15.2675 241.797 13.4453 244.006 12.1932C246.215 10.9309 248.709 10.2997 251.488 10.2997C254.247 10.2997 256.731 10.9309 258.94 12.1932C261.159 13.4453 262.91 15.2675 264.193 17.6598C265.486 20.0521 266.132 22.9534 266.132 26.3636ZM259.429 26.3636C259.429 24.1546 259.098 22.2917 258.436 20.7749C257.785 19.258 256.863 18.1077 255.672 17.3239C254.481 16.54 253.087 16.1481 251.488 16.1481C249.89 16.1481 248.496 16.54 247.305 17.3239C246.113 18.1077 245.187 19.258 244.525 20.7749C243.874 22.2917 243.548 24.1546 243.548 26.3636C243.548 28.5727 243.874 30.4356 244.525 31.9524C245.187 33.4692 246.113 34.6196 247.305 35.4034C248.496 36.1873 249.89 36.5792 251.488 36.5792C253.087 36.5792 254.481 36.1873 255.672 35.4034C256.863 34.6196 257.785 33.4692 258.436 31.9524C259.098 30.4356 259.429 28.5727 259.429 26.3636Z" fill="#08B9E5"/>
<path d="M283.494 40H279.885V29.8182H283.524C284.548 29.8182 285.43 30.022 286.169 30.4297C286.908 30.834 287.477 31.4157 287.874 32.1747C288.275 32.9337 288.476 33.8419 288.476 34.8991C288.476 35.9598 288.275 36.8712 287.874 37.6335C287.477 38.3958 286.905 38.9808 286.159 39.3885C285.417 39.7962 284.528 40 283.494 40ZM282.038 38.1555H283.405C284.041 38.1555 284.576 38.0429 285.011 37.8175C285.448 37.5888 285.776 37.2358 285.995 36.7585C286.217 36.2779 286.328 35.6581 286.328 34.8991C286.328 34.1468 286.217 33.532 285.995 33.0547C285.776 32.5774 285.45 32.2261 285.016 32.0007C284.581 31.7753 284.046 31.6626 283.41 31.6626H282.038V38.1555ZM297.07 40V29.8182H303.931V31.593H299.223V34.0192H303.578V35.794H299.223V38.2251H303.951V40H297.07ZM318.166 32.7464C318.126 32.3454 317.956 32.0339 317.654 31.8118C317.353 31.5897 316.943 31.4787 316.426 31.4787C316.075 31.4787 315.778 31.5284 315.536 31.6278C315.294 31.724 315.109 31.8582 314.979 32.0305C314.853 32.2029 314.79 32.3984 314.79 32.6172C314.784 32.7995 314.822 32.9586 314.905 33.0945C314.991 33.2304 315.109 33.348 315.258 33.4474C315.407 33.5436 315.579 33.6281 315.775 33.701C315.97 33.7706 316.179 33.8303 316.401 33.88L317.316 34.0987C317.76 34.1982 318.168 34.3307 318.539 34.4964C318.91 34.6622 319.232 34.866 319.504 35.108C319.775 35.3499 319.986 35.6349 320.135 35.9631C320.287 36.2912 320.365 36.6674 320.369 37.0916C320.365 37.7147 320.206 38.255 319.891 38.7124C319.58 39.1664 319.129 39.5194 318.539 39.7713C317.952 40.0199 317.245 40.1442 316.416 40.1442C315.594 40.1442 314.878 40.0182 314.268 39.7663C313.662 39.5144 313.188 39.1416 312.847 38.6477C312.509 38.1506 312.331 37.5357 312.315 36.8033H314.398C314.421 37.1446 314.519 37.4297 314.691 37.6584C314.867 37.8838 315.1 38.0545 315.392 38.1705C315.687 38.2831 316.02 38.3395 316.391 38.3395C316.756 38.3395 317.072 38.2865 317.341 38.1804C317.613 38.0743 317.823 37.9268 317.972 37.7379C318.121 37.549 318.196 37.3319 318.196 37.0866C318.196 36.858 318.128 36.6657 317.992 36.5099C317.86 36.3542 317.664 36.2216 317.406 36.1122C317.15 36.0028 316.837 35.9034 316.466 35.8139L315.357 35.5355C314.499 35.3267 313.821 35.0002 313.324 34.5561C312.827 34.112 312.58 33.5137 312.583 32.7614C312.58 32.1449 312.744 31.6063 313.075 31.1456C313.41 30.6849 313.869 30.3253 314.452 30.0668C315.036 29.8082 315.699 29.679 316.441 29.679C317.197 29.679 317.856 29.8082 318.42 30.0668C318.987 30.3253 319.427 30.6849 319.742 31.1456C320.057 31.6063 320.219 32.1399 320.229 32.7464H318.166ZM330.969 29.8182V40H328.817V29.8182H330.969ZM346.492 33.1094C346.422 32.8674 346.324 32.6536 346.199 32.468C346.073 32.2791 345.918 32.12 345.736 31.9908C345.557 31.8582 345.352 31.7571 345.12 31.6875C344.891 31.6179 344.637 31.5831 344.359 31.5831C343.839 31.5831 343.381 31.7124 342.987 31.9709C342.596 32.2294 342.291 32.6056 342.072 33.0994C341.853 33.59 341.744 34.1899 341.744 34.8991C341.744 35.6084 341.852 36.2116 342.067 36.7088C342.283 37.206 342.587 37.5855 342.982 37.8473C343.376 38.1058 343.842 38.2351 344.379 38.2351C344.866 38.2351 345.282 38.1489 345.627 37.9766C345.975 37.8009 346.24 37.554 346.422 37.2358C346.608 36.9176 346.701 36.5414 346.701 36.1072L347.138 36.1719H344.513V34.5511H348.774V35.8338C348.774 36.7287 348.585 37.4976 348.207 38.1406C347.829 38.7803 347.309 39.2741 346.646 39.6222C345.983 39.9669 345.224 40.1392 344.369 40.1392C343.414 40.1392 342.576 39.9287 341.853 39.5078C341.131 39.0836 340.567 38.482 340.163 37.7031C339.762 36.9209 339.561 35.9929 339.561 34.919C339.561 34.0937 339.681 33.358 339.919 32.7116C340.161 32.062 340.499 31.5118 340.934 31.0611C341.368 30.6103 341.873 30.2673 342.45 30.032C343.027 29.7966 343.651 29.679 344.324 29.679C344.901 29.679 345.438 29.7635 345.935 29.9325C346.432 30.0982 346.873 30.3336 347.257 30.6385C347.645 30.9434 347.962 31.3063 348.207 31.7273C348.452 32.1449 348.61 32.6056 348.679 33.1094H346.492ZM365.907 29.8182V40H364.048L359.618 33.5916H359.544V40H357.391V29.8182H359.28L363.675 36.2216H363.764V29.8182H365.907ZM374.686 40V29.8182H381.547V31.593H376.838V34.0192H381.194V35.794H376.838V38.2251H381.566V40H374.686ZM390.258 40V29.8182H394.275C395.044 29.8182 395.7 29.9557 396.244 30.2308C396.791 30.5026 397.207 30.8887 397.492 31.3892C397.78 31.8864 397.924 32.4714 397.924 33.1442C397.924 33.8203 397.778 34.402 397.487 34.8892C397.195 35.3731 396.772 35.7443 396.219 36.0028C395.669 36.2614 395.003 36.3906 394.22 36.3906H391.531V34.6605H393.872C394.283 34.6605 394.625 34.6042 394.896 34.4915C395.168 34.3788 395.37 34.2098 395.503 33.9844C395.639 33.759 395.707 33.4789 395.707 33.1442C395.707 32.8061 395.639 32.5211 395.503 32.2891C395.37 32.0571 395.167 31.8814 394.892 31.7621C394.62 31.6394 394.277 31.5781 393.862 31.5781H392.411V40H390.258ZM395.757 35.3665L398.287 40H395.911L393.435 35.3665H395.757Z" fill="white"/>
<path d="M64.5373 49.2727V98H54.2351V49.2727H64.5373ZM114.44 49.2727V98H105.542L84.3425 67.3313H83.9856V98H73.6834V49.2727H82.7246L103.757 79.9176H104.186V49.2727H114.44ZM166.615 66.332H156.194C156.004 64.9838 155.615 63.7862 155.028 62.7393C154.441 61.6766 153.688 60.7725 152.768 60.027C151.848 59.2815 150.785 58.7105 149.58 58.3139C148.39 57.9174 147.097 57.7191 145.702 57.7191C143.179 57.7191 140.983 58.3456 139.111 59.5987C137.239 60.8359 135.788 62.6442 134.757 65.0234C133.726 67.3868 133.21 70.2578 133.21 73.6364C133.21 77.1101 133.726 80.0286 134.757 82.392C135.804 84.7554 137.263 86.5399 139.135 87.7454C141.006 88.9509 143.172 89.5536 145.63 89.5536C147.01 89.5536 148.287 89.3712 149.461 89.0064C150.65 88.6416 151.705 88.1102 152.625 87.4123C153.545 86.6985 154.306 85.834 154.909 84.8189C155.528 83.8037 155.956 82.6458 156.194 81.3452L166.615 81.3928C166.346 83.6293 165.671 85.7865 164.593 87.8643C163.53 89.9264 162.095 91.7743 160.286 93.408C158.494 95.0259 156.353 96.3107 153.862 97.2624C151.388 98.1983 148.588 98.6662 145.464 98.6662C141.117 98.6662 137.231 97.6828 133.805 95.7159C130.395 93.7491 127.698 90.9019 125.716 87.1744C123.749 83.4469 122.765 78.9342 122.765 73.6364C122.765 68.3227 123.765 63.8021 125.763 60.0746C127.762 56.3471 130.474 53.5078 133.9 51.5568C137.327 49.59 141.181 48.6065 145.464 48.6065C148.287 48.6065 150.904 49.0031 153.315 49.7962C155.742 50.5893 157.891 51.7472 159.763 53.2699C161.635 54.7767 163.157 56.6246 164.331 58.8136C165.521 61.0025 166.282 63.5086 166.615 66.332ZM219.451 73.6364C219.451 78.95 218.443 83.4706 216.429 87.1982C214.43 90.9257 211.702 93.7728 208.244 95.7397C204.802 97.6907 200.932 98.6662 196.633 98.6662C192.303 98.6662 188.417 97.6828 184.975 95.7159C181.533 93.7491 178.813 90.9019 176.814 87.1744C174.816 83.4469 173.816 78.9342 173.816 73.6364C173.816 68.3227 174.816 63.8021 176.814 60.0746C178.813 56.3471 181.533 53.5078 184.975 51.5568C188.417 49.59 192.303 48.6065 196.633 48.6065C200.932 48.6065 204.802 49.59 208.244 51.5568C211.702 53.5078 214.43 56.3471 216.429 60.0746C218.443 63.8021 219.451 68.3227 219.451 73.6364ZM209.006 73.6364C209.006 70.1944 208.49 67.2917 207.459 64.9283C206.444 62.5649 205.008 60.7725 203.153 59.5511C201.297 58.3298 199.124 57.7191 196.633 57.7191C194.143 57.7191 191.97 58.3298 190.114 59.5511C188.258 60.7725 186.815 62.5649 185.784 64.9283C184.769 67.2917 184.261 70.1944 184.261 73.6364C184.261 77.0784 184.769 79.9811 185.784 82.3445C186.815 84.7079 188.258 86.5002 190.114 87.7216C191.97 88.9429 194.143 89.5536 196.633 89.5536C199.124 89.5536 201.297 88.9429 203.153 87.7216C205.008 86.5002 206.444 84.7079 207.459 82.3445C208.49 79.9811 209.006 77.0784 209.006 73.6364ZM227.752 49.2727H240.457L253.876 82.0114H254.447L267.866 49.2727H280.572V98H270.579V66.2844H270.174L257.564 97.7621H250.759L238.149 66.1655H237.745V98H227.752V49.2727ZM319.827 49.2727H330.129V80.9169C330.129 84.4699 329.281 87.5788 327.584 90.2436C325.902 92.9084 323.547 94.9863 320.517 96.4773C317.488 97.9524 313.958 98.69 309.93 98.69C305.885 98.69 302.348 97.9524 299.318 96.4773C296.288 94.9863 293.933 92.9084 292.252 90.2436C290.57 87.5788 289.73 84.4699 289.73 80.9169V49.2727H300.032V80.0366C300.032 81.8924 300.436 83.542 301.245 84.9854C302.07 86.4289 303.228 87.563 304.719 88.3878C306.21 89.2126 307.947 89.625 309.93 89.625C311.928 89.625 313.665 89.2126 315.14 88.3878C316.631 87.563 317.781 86.4289 318.59 84.9854C319.415 83.542 319.827 81.8924 319.827 80.0366V49.2727ZM339.276 49.2727H351.981L365.4 82.0114H365.971L379.39 49.2727H392.095V98H382.102V66.2844H381.698L369.088 97.7621H362.283L349.673 66.1655H349.268V98H339.276V49.2727Z" fill="url(#paint0_linear_1_21)"/>
<defs>
<linearGradient id="paint0_linear_1_21" x1="225.5" y1="33" x2="225.822" y2="65.903" gradientUnits="userSpaceOnUse">
<stop offset="0.875" stop-color="#52C5F7"/>
<stop offset="0.963542" stop-color="#217488"/>
</linearGradient>
</defs>
</svg>
