<svg width="552" height="497" viewBox="0 0 552 497" fill="none" xmlns="http://www.w3.org/2000/svg">
<path d="M143 173.937C143 167.887 199.83 68.5613 199.83 68.5613C199.83 68.5613 247.628 95.7876 273.597 110.913C280.735 115.07 276.984 149.736 276.984 149.736L251.768 153.769H229.563L211.874 132.089L214.509 149.736C214.509 149.736 221.283 157.803 214.509 161.836C207.734 165.87 202.089 166.878 202.089 166.878L220.907 179.987L251.768 191.583L296.932 216.793L323.653 252.59L365.053 213.264C359.735 267.786 352.21 295.979 327.417 340.319L327.617 456.787C276.608 481.492 252.521 481.492 203.418 461.829L214.509 322.168C182.397 254.567 143 179.987 143 173.937Z" fill="#53DAF7"/>
<path d="M242.736 1C242.736 1 211.874 51.6776 211.874 59.8674C211.874 68.0572 245.37 83.1828 249.886 81.6703C254.403 80.1577 270.184 49.1068 273.597 38.8142C277.011 28.5216 255.376 13.6015 242.736 1Z" fill="#53DAF7"/>
<path d="M285.264 42.8477L259.295 88.2247L271.715 95.7876C271.715 95.7876 280.002 101.841 283.006 108.392C287.93 119.129 283.006 140.66 283.006 140.66L318.76 79.1493L303.33 59.8674L285.264 42.8477Z" fill="#53DAF7"/>
<path d="M352.633 125.535L325.535 90.2415L271.715 184.021C262.734 179.483 291.286 213.264 303.33 204.188C315.373 195.113 352.633 125.535 352.633 125.535Z" fill="#53DAF7"/>
<path d="M325.535 238.473L385 173.937L372.58 153.769L359.407 137.635L305.588 216.793L314.244 224.86L325.535 238.473Z" fill="#53DAF7"/>
<path d="M271.715 161.836C261.237 166.882 245.999 168.814 225.047 166.878L260.425 184.021L271.715 161.836Z" fill="#53DAF7"/>
<path d="M143 173.937C143 167.887 199.83 68.5613 199.83 68.5613C199.83 68.5613 247.628 95.7876 273.597 110.913C280.735 115.07 276.984 149.736 276.984 149.736L251.768 153.769H229.563L211.874 132.089L214.509 149.736C214.509 149.736 221.283 157.803 214.509 161.836C207.734 165.87 202.089 166.878 202.089 166.878L220.907 179.987L251.768 191.583L296.932 216.793L323.653 252.59L365.053 213.264C359.735 267.786 352.21 295.979 327.417 340.319L327.617 456.787C276.608 481.492 252.521 481.492 203.418 461.829L214.509 322.168C182.397 254.567 143 179.987 143 173.937Z" stroke="#53DAF7"/>
<path d="M242.736 1C242.736 1 211.874 51.6776 211.874 59.8674C211.874 68.0572 245.37 83.1828 249.886 81.6703C254.403 80.1577 270.184 49.1068 273.597 38.8142C277.011 28.5216 255.376 13.6015 242.736 1Z" stroke="#53DAF7"/>
<path d="M285.264 42.8477L259.295 88.2247L271.715 95.7876C271.715 95.7876 280.002 101.841 283.006 108.392C287.93 119.129 283.006 140.66 283.006 140.66L318.76 79.1493L303.33 59.8674L285.264 42.8477Z" stroke="#53DAF7"/>
<path d="M352.633 125.535L325.535 90.2415L271.715 184.021C262.734 179.483 291.286 213.264 303.33 204.188C315.373 195.113 352.633 125.535 352.633 125.535Z" stroke="#53DAF7"/>
<path d="M325.535 238.473L385 173.937L372.58 153.769L359.407 137.635L305.588 216.793L314.244 224.86L325.535 238.473Z" stroke="#53DAF7"/>
<path d="M271.715 161.836C261.237 166.882 245.999 168.814 225.047 166.878L260.425 184.021L271.715 161.836Z" stroke="#53DAF7"/>
<path d="M1 311.583C1 307.889 43.7403 247.248 43.7403 247.248C43.7403 247.248 79.6874 263.87 99.2177 273.105C104.586 275.643 101.765 296.807 101.765 296.807L82.8009 299.27H66.1011L52.7978 286.033L54.7792 296.807C54.7792 296.807 59.874 301.732 54.7792 304.195C49.6843 306.657 45.4386 307.273 45.4386 307.273L59.591 315.276L82.8009 322.356L116.767 337.747L136.863 359.603L167.998 335.593C163.999 368.88 158.34 386.092 139.694 413.163L139.844 484.27C101.482 499.353 83.367 499.353 46.4383 487.348L54.7792 402.082C30.6294 360.81 1 315.276 1 311.583Z" fill="#53DAF7"/>
<path d="M76.0078 206C76.0078 206 52.7978 236.94 52.7978 241.94C52.7978 246.94 77.9891 256.175 81.3857 255.251C84.7823 254.328 96.6504 235.37 99.2177 229.087C101.785 222.803 85.514 213.694 76.0078 206Z" fill="#53DAF7"/>
<path d="M107.992 231.549L88.4619 259.253L97.8025 263.87C97.8025 263.87 104.034 267.566 106.294 271.566C109.997 278.121 106.294 291.266 106.294 291.266L133.184 253.712L121.579 241.94L107.992 231.549Z" fill="#53DAF7"/>
<path d="M158.658 282.032L138.278 260.484L97.8025 317.739C91.0479 314.969 112.521 335.593 121.579 330.052C130.636 324.511 158.658 282.032 158.658 282.032Z" fill="#53DAF7"/>
<path d="M138.278 350.984L183 311.583L173.659 299.27L163.753 289.419L123.277 337.747L129.787 342.672L138.278 350.984Z" fill="#53DAF7"/>
<path d="M97.8025 304.195C89.9222 307.275 78.4617 308.455 62.7045 307.273L89.311 317.739L97.8025 304.195Z" fill="#53DAF7"/>
<path d="M1 311.583C1 307.889 43.7403 247.248 43.7403 247.248C43.7403 247.248 79.6874 263.87 99.2177 273.105C104.586 275.643 101.765 296.807 101.765 296.807L82.8009 299.27H66.1011L52.7978 286.033L54.7792 296.807C54.7792 296.807 59.874 301.732 54.7792 304.195C49.6843 306.657 45.4386 307.273 45.4386 307.273L59.591 315.276L82.8009 322.356L116.767 337.747L136.863 359.603L167.998 335.593C163.999 368.88 158.34 386.092 139.694 413.163L139.844 484.27C101.482 499.353 83.367 499.353 46.4383 487.348L54.7792 402.082C30.6294 360.81 1 315.276 1 311.583Z" stroke="#53DAF7"/>
<path d="M76.0078 206C76.0078 206 52.7978 236.94 52.7978 241.94C52.7978 246.94 77.9891 256.175 81.3857 255.251C84.7823 254.328 96.6504 235.37 99.2177 229.087C101.785 222.803 85.514 213.694 76.0078 206Z" stroke="#53DAF7"/>
<path d="M107.992 231.549L88.4619 259.253L97.8025 263.87C97.8025 263.87 104.034 267.566 106.294 271.566C109.997 278.121 106.294 291.266 106.294 291.266L133.184 253.712L121.579 241.94L107.992 231.549Z" stroke="#53DAF7"/>
<path d="M158.658 282.032L138.278 260.484L97.8025 317.739C91.0479 314.969 112.521 335.593 121.579 330.052C130.636 324.511 158.658 282.032 158.658 282.032Z" stroke="#53DAF7"/>
<path d="M138.278 350.984L183 311.583L173.659 299.27L163.753 289.419L123.277 337.747L129.787 342.672L138.278 350.984Z" stroke="#53DAF7"/>
<path d="M97.8025 304.195C89.9222 307.275 78.4617 308.455 62.7045 307.273L89.311 317.739L97.8025 304.195Z" stroke="#53DAF7"/>
<path d="M371 306.495C371 302.699 413.271 240.386 413.271 240.386C413.271 240.386 448.823 257.467 468.138 266.956C473.447 269.564 470.658 291.312 470.658 291.312L451.902 293.843H435.386L422.229 280.241L424.188 291.312C424.188 291.312 429.227 296.373 424.188 298.904C419.149 301.434 414.95 302.067 414.95 302.067L428.947 310.291L451.902 317.566L485.495 333.382L505.37 355.84L536.163 331.167C532.208 365.373 526.611 383.06 508.17 410.878L508.318 483.946C470.378 499.446 452.462 499.446 415.939 487.109L424.188 399.491C400.304 357.08 371 310.291 371 306.495Z" fill="#53DAF7"/>
<path d="M445.184 198C445.184 198 422.229 229.794 422.229 234.932C422.229 240.07 447.143 249.559 450.502 248.61C453.862 247.661 465.599 228.181 468.138 221.723C470.678 215.266 454.585 205.906 445.184 198Z" fill="#53DAF7"/>
<path d="M476.816 224.254L457.501 252.722L466.739 257.467C466.739 257.467 472.902 261.264 475.137 265.375C478.8 272.111 475.137 285.619 475.137 285.619L501.731 247.028L490.254 234.932L476.816 224.254Z" fill="#53DAF7"/>
<path d="M526.925 276.129L506.77 253.987L466.739 312.821C460.058 309.975 481.295 331.167 490.254 325.474C499.212 319.78 526.925 276.129 526.925 276.129Z" fill="#53DAF7"/>
<path d="M506.77 346.983L551 306.495L541.762 293.843L531.964 283.721L491.933 333.382L498.372 338.443L506.77 346.983Z" fill="#53DAF7"/>
<path d="M466.739 298.904C458.945 302.069 447.611 303.281 432.026 302.067L458.341 312.821L466.739 298.904Z" fill="#53DAF7"/>
<path d="M371 306.495C371 302.699 413.271 240.386 413.271 240.386C413.271 240.386 448.823 257.467 468.138 266.956C473.447 269.564 470.658 291.312 470.658 291.312L451.902 293.843H435.386L422.229 280.241L424.188 291.312C424.188 291.312 429.227 296.373 424.188 298.904C419.149 301.434 414.95 302.067 414.95 302.067L428.947 310.291L451.902 317.566L485.495 333.382L505.37 355.84L536.163 331.167C532.208 365.373 526.611 383.06 508.17 410.878L508.318 483.946C470.378 499.446 452.462 499.446 415.939 487.109L424.188 399.491C400.304 357.08 371 310.291 371 306.495Z" stroke="#53DAF7"/>
<path d="M445.184 198C445.184 198 422.229 229.794 422.229 234.932C422.229 240.07 447.143 249.559 450.502 248.61C453.862 247.661 465.599 228.181 468.138 221.723C470.678 215.266 454.585 205.906 445.184 198Z" stroke="#53DAF7"/>
<path d="M476.816 224.254L457.501 252.722L466.739 257.467C466.739 257.467 472.902 261.264 475.137 265.375C478.8 272.111 475.137 285.619 475.137 285.619L501.731 247.028L490.254 234.932L476.816 224.254Z" stroke="#53DAF7"/>
<path d="M526.925 276.129L506.77 253.987L466.739 312.821C460.058 309.975 481.295 331.167 490.254 325.474C499.212 319.78 526.925 276.129 526.925 276.129Z" stroke="#53DAF7"/>
<path d="M506.77 346.983L551 306.495L541.762 293.843L531.964 283.721L491.933 333.382L498.372 338.443L506.77 346.983Z" stroke="#53DAF7"/>
<path d="M466.739 298.904C458.945 302.069 447.611 303.281 432.026 302.067L458.341 312.821L466.739 298.904Z" stroke="#53DAF7"/>
</svg>
