<svg width="91" height="91" viewBox="0 0 91 91" fill="none" xmlns="http://www.w3.org/2000/svg">
<path d="M61 14.5H43.5C40.5785 18.002 40.5177 20.3357 43 23.5H60.5L54 30C52.9524 34.1887 54.6667 36.9527 60.5 37L72 25.5L84 37C88.2834 37.2181 89.9373 36.3534 90 31L78.5 18.5L90 7C89.2358 3.13735 88.273 0.684194 84 1.5L72 12.5L60.5 1.5C56.7333 1.05662 54.2047 2.35535 54 7L61 14.5Z" fill="#53DAF7"/>
<path d="M34.5 15H20C16.3629 16.9184 14.315 19.321 14.5 22.5V25.5C17.228 28.862 19.703 28.4453 22.5 25.5V23.5H34.5C37.2477 20.0189 37.4307 18.1471 34.5 15Z" fill="#53DAF7"/>
<path d="M22.5 34.5C19.7036 31.3856 17.9635 31.2773 14.5 34.5V45C16.6479 48.0541 17.8521 49.1315 20 50.5H30V49.5C32.0716 47.0351 32.995 44.8779 30 41.5H22.5V34.5Z" fill="#53DAF7"/>
<path d="M36.5 48V42.5L39 41.5H52L54 44V48L52 49.5H39L36.5 48Z" fill="#53DAF7"/>
<path d="M67.5 50.5H60.5C57.9143 46.9853 57.286 45.0147 60.5 41.5H65H72C74.4414 43.4495 76.3462 44.7694 76.8747 48V56.3789C74.0921 59.779 71.291 59.9864 67.5 57V50.5Z" fill="#53DAF7"/>
<path d="M68.5 68V64.5C71.7705 62.3712 73.6042 62.6024 76.8747 64.5V71C74.8847 74.2036 73.3933 75.3525 70.5 77H56.5C53.4655 73.3256 53.1747 71.3397 56.5 68H68.5Z" fill="#53DAF7"/>
<path d="M6 55L0.5 61V85.5L7 90.5H31L36.5 85.5V77H47.5C50.8856 73.4853 50.7842 71.5147 47.5 68H36V60.5L31 55H6Z" fill="#53DAF7"/>
<path d="M61 14.5H43.5C40.5785 18.002 40.5177 20.3357 43 23.5H60.5L54 30C52.9524 34.1887 54.6667 36.9527 60.5 37L72 25.5L84 37C88.2834 37.2181 89.9373 36.3534 90 31L78.5 18.5L90 7C89.2358 3.13735 88.273 0.684194 84 1.5L72 12.5L60.5 1.5C56.7333 1.05662 54.2047 2.35535 54 7L61 14.5Z" stroke="#53DAF7"/>
<path d="M34.5 15H20C16.3629 16.9184 14.315 19.321 14.5 22.5V25.5C17.228 28.862 19.703 28.4453 22.5 25.5V23.5H34.5C37.2477 20.0189 37.4307 18.1471 34.5 15Z" stroke="#53DAF7"/>
<path d="M22.5 34.5C19.7036 31.3856 17.9635 31.2773 14.5 34.5V45C16.6479 48.0541 17.8521 49.1315 20 50.5H30V49.5C32.0716 47.0351 32.995 44.8779 30 41.5H22.5V34.5Z" stroke="#53DAF7"/>
<path d="M36.5 48V42.5L39 41.5H52L54 44V48L52 49.5H39L36.5 48Z" stroke="#53DAF7"/>
<path d="M67.5 50.5H60.5C57.9143 46.9853 57.286 45.0147 60.5 41.5H65H72C74.4414 43.4495 76.3462 44.7694 76.8747 48V56.3789C74.0921 59.779 71.291 59.9864 67.5 57V50.5Z" stroke="#53DAF7"/>
<path d="M68.5 68V64.5C71.7705 62.3712 73.6042 62.6024 76.8747 64.5V71C74.8847 74.2036 73.3933 75.3525 70.5 77H56.5C53.4655 73.3256 53.1747 71.3397 56.5 68H68.5Z" stroke="#53DAF7"/>
<path d="M6 55L0.5 61V85.5L7 90.5H31L36.5 85.5V77H47.5C50.8856 73.4853 50.7842 71.5147 47.5 68H36V60.5L31 55H6Z" stroke="#53DAF7"/>
</svg>
